<?xml version="1.0" standalone="no"?>
<!DOCTYPE svg PUBLIC "-//W3C//DTD SVG 20010904//EN"
 "http://www.w3.org/TR/2001/REC-SVG-20010904/DTD/svg10.dtd">
<svg version="1.0" xmlns="http://www.w3.org/2000/svg"
 width="2966.000000pt" height="1408.000000pt" viewBox="0 0 2966.000000 1408.000000"
 preserveAspectRatio="xMidYMid meet">

<g transform="translate(0.000000,1408.000000) scale(0.100000,-0.100000)"
fill="#000000" stroke="none">
<path d="M14845 10332 c-38 -8 -110 -17 -160 -21 -83 -6 -90 -8 -93 -28 -3
-23 -5 -23 -157 -23 -148 0 -154 1 -157 21 -3 20 -8 21 -163 20 -159 -2 -174
-5 -175 -38 0 -10 135 -13 640 -13 433 0 640 3 640 10 0 6 -8 13 -17 16 -10 3
-25 9 -33 13 -9 5 -30 12 -48 16 -18 3 -32 10 -32 13 0 4 -37 8 -82 10 -45 1
-84 6 -87 10 -4 4 -37 1 -76 -6z"/>
<path d="M10759 10304 c-9 -3 -19 -16 -22 -30 l-4 -24 163 0 164 0 0 25 c0 22
-4 25 -38 25 -22 0 -86 2 -143 5 -57 2 -111 2 -120 -1z"/>
<path d="M11748 10285 c-26 -7 -48 -9 -50 -4 -2 4 -39 0 -83 -11 l-80 -18 325
0 325 0 -80 18 c-60 14 -81 16 -87 7 -9 -14 -48 -18 -48 -5 0 5 -4 7 -8 4 -5
-3 -21 2 -36 10 -34 17 -114 17 -178 -1z"/>
<path d="M13300 10281 c0 -16 -5 -16 -57 -6 -32 7 -67 10 -78 8 -48 -9 -395
-13 -445 -4 -33 5 -57 5 -61 0 -4 -7 -94 -6 -94 1 0 1 -10 3 -22 4 -13 2 -23
-1 -23 -6 0 -4 -19 -8 -42 -9 -24 0 -52 -4 -63 -9 -11 -5 310 -9 748 -9 442
-1 767 3 767 8 0 8 -63 11 -252 15 -29 0 -48 5 -48 12 0 8 -49 11 -165 12
-150 0 -165 -1 -165 -17z"/>
<path d="M16534 10271 c-16 -16 12 -21 128 -21 72 0 128 3 125 6 -7 8 -246 21
-253 15z"/>
<path d="M11110 10260 c-22 -5 16 -8 100 -8 84 0 127 3 115 8 -24 10 -166 10
-215 0z"/>
<path d="M12295 10260 c-30 -8 -30 -8 8 -9 20 0 37 4 37 9 0 11 -2 11 -45 0z"/>
<path d="M11388 10253 c6 -2 18 -2 25 0 6 3 1 5 -13 5 -14 0 -19 -2 -12 -5z"/>
<path d="M15248 10253 c6 -2 18 -2 25 0 6 3 1 5 -13 5 -14 0 -19 -2 -12 -5z"/>
<path d="M16433 10253 c9 -2 23 -2 30 0 6 3 -1 5 -18 5 -16 0 -22 -2 -12 -5z"/>
<path d="M16488 10253 c6 -2 18 -2 25 0 6 3 1 5 -13 5 -14 0 -19 -2 -12 -5z"/>
<path d="M15428 9733 l-3 -488 -860 2 c-738 1 -863 0 -882 -13 l-23 -14 0
-361 0 -360 23 3 c21 3 22 6 25 148 3 157 -1 195 -21 183 -8 -4 -7 -1 2 10 10
13 13 51 12 149 -1 136 8 181 37 194 17 7 546 28 677 27 39 0 126 0 195 0 69
1 168 1 220 1 52 1 221 -3 376 -8 169 -5 283 -5 287 0 3 5 9 135 13 288 7 264
6 280 -11 293 -11 7 -14 13 -8 13 6 0 11 52 12 147 1 81 7 153 12 159 6 7 7
28 4 48 -5 26 -15 40 -38 51 -16 8 -34 15 -38 15 -5 0 -10 -219 -11 -487z"/>
<path d="M17980 9976 c0 -2 16 -13 35 -25 19 -11 35 -17 35 -13 0 5 -16 16
-35 25 -19 9 -35 15 -35 13z"/>
<path d="M18085 9910 c3 -5 11 -10 16 -10 6 0 7 5 4 10 -3 6 -11 10 -16 10 -6
0 -7 -4 -4 -10z"/>
<path d="M10650 9240 c0 -11 23 -18 79 -25 23 -3 48 -8 53 -11 6 -4 383 -8
838 -10 l827 -3 46 -31 47 -31 0 -155 c0 -88 -4 -154 -9 -154 -5 0 -9 -43 -8
-97 2 -77 -2 -103 -15 -123 -9 -14 -19 -42 -22 -62 -6 -36 -4 -38 20 -38 26 0
26 -1 19 -47 -5 -27 -8 -56 -7 -66 0 -9 -3 -15 -9 -12 -5 4 -9 -1 -9 -10 0 -9
-4 -13 -10 -10 -13 8 -12 -83 2 -118 6 -16 16 -26 23 -23 8 3 12 -2 11 -12 -2
-9 -13 -18 -24 -20 -26 -4 -27 -9 -5 -53 12 -24 18 -68 21 -149 3 -63 9 -118
15 -122 14 -9 -10 -155 -31 -178 -19 -23 -25 -57 -12 -65 6 -4 8 -11 4 -16 -3
-6 2 -16 11 -23 17 -12 16 -14 -5 -29 -20 -14 -22 -19 -11 -45 9 -20 9 -36 1
-56 -5 -15 -10 -72 -10 -127 0 -98 0 -99 24 -99 l25 0 -4 -106 c-2 -58 -6
-109 -9 -112 -3 -3 -6 2 -6 12 0 9 -5 14 -11 11 -5 -4 -8 -12 -6 -18 2 -7 0
-20 -5 -29 -6 -12 -5 -18 2 -18 6 0 9 -4 5 -9 -3 -6 5 -16 17 -22 l23 -13 -25
-6 c-24 -6 -44 -50 -22 -50 29 0 44 -162 23 -237 -8 -28 -7 -33 10 -38 17 -6
19 -16 18 -88 -1 -45 -6 -88 -12 -94 -5 -7 -7 -19 -4 -28 4 -8 2 -17 -2 -20
-11 -6 -2 -47 13 -57 7 -5 7 -8 -2 -8 -7 0 -10 -4 -7 -10 4 -6 -5 -10 -19 -10
-21 0 -26 -5 -26 -27 0 -14 7 -35 17 -45 11 -13 18 -48 24 -120 4 -56 6 -105
3 -110 -3 -5 0 -15 6 -23 8 -10 10 -42 6 -102 -9 -129 -9 -160 -2 -188 5 -21
3 -25 -17 -25 -32 0 -37 -7 -27 -41 5 -16 14 -82 20 -147 7 -64 16 -122 21
-128 9 -11 5 -292 -7 -506 -5 -84 -3 -122 5 -132 17 -20 6 -446 -13 -508 -16
-53 -12 -109 9 -124 8 -6 15 -21 15 -33 0 -12 4 -20 8 -17 5 3 7 1179 5 2613
-4 2271 -6 2610 -19 2623 -13 13 -133 15 -949 17 -514 1 -935 -2 -935 -7z"/>
<path d="M16185 9241 l-30 -8 35 -6 c19 -4 112 -9 205 -11 194 -5 432 -21 520
-35 33 -6 90 -13 127 -16 37 -4 70 -11 73 -16 4 -5 18 -9 32 -9 50 0 231 -94
254 -132 4 -6 12 -9 20 -6 16 5 -89 86 -172 131 -74 41 -159 71 -261 93 -81
16 -748 29 -803 15z"/>
<path d="M18640 9208 c0 -3 11 -30 24 -59 l24 -54 0 36 c0 20 -3 40 -6 45 -10
13 -42 37 -42 32z"/>
<path d="M18701 9062 c71 -179 125 -364 153 -522 63 -353 33 -786 -78 -1125
-92 -278 -227 -510 -408 -701 -38 -39 -68 -74 -68 -77 0 -14 40 7 45 24 4 10
17 22 31 25 13 3 24 12 24 19 0 7 14 18 30 25 19 8 30 20 30 32 0 13 11 24 30
31 17 7 30 19 30 28 0 30 12 50 35 59 17 7 21 14 18 34 -4 20 2 32 26 53 17
15 31 37 31 50 0 13 12 31 30 45 23 17 30 30 30 55 0 23 8 41 25 57 13 12 29
42 34 67 6 26 20 52 34 64 20 16 26 32 29 77 4 47 10 62 32 83 26 24 27 29 21
80 -9 72 0 117 30 148 l25 25 0 420 1 420 -26 26 c-22 22 -25 33 -25 99 0 108
-8 137 -35 137 -27 0 -35 22 -35 106 0 55 -2 62 -26 74 -14 8 -28 26 -31 41
-3 15 -15 31 -29 37 -22 11 -23 10 -13 -16z"/>
<path d="M17450 8976 c0 -2 7 -9 15 -16 13 -11 14 -10 9 4 -5 14 -24 23 -24
12z"/>
<path d="M17580 8820 c0 -5 5 -10 11 -10 5 0 7 5 4 10 -3 6 -8 10 -11 10 -2 0
-4 -4 -4 -10z"/>
<path d="M17630 8741 c0 -5 5 -13 10 -16 6 -3 10 -2 10 4 0 5 -4 13 -10 16 -5
3 -10 2 -10 -4z"/>
<path d="M17691 8614 c0 -11 3 -14 6 -6 3 7 2 16 -1 19 -3 4 -6 -2 -5 -13z"/>
<path d="M15391 8363 c0 -76 4 -147 9 -158 7 -17 9 -18 9 -2 1 9 10 34 21 54
16 30 20 57 20 134 0 92 -1 97 -22 103 -13 3 -26 6 -30 6 -5 0 -8 -62 -7 -137z"/>
<path d="M15309 7893 c-1 -5 -1 -11 0 -15 1 -8 -15 -12 -31 -9 -5 0 -8 -190
-8 -424 l0 -425 29 0 c41 0 44 11 16 50 -24 33 -24 51 3 82 11 13 13 29 7 65
-4 26 -6 109 -4 183 4 157 3 463 -1 485 -4 16 -9 20 -11 8z m-17 -488 c0 -69
-2 -129 -6 -132 -3 -4 -6 56 -6 132 0 76 3 136 6 133 3 -4 6 -63 6 -133z"/>
<path d="M17325 7208 c-11 -6 -27 -15 -35 -20 -8 -4 -21 -10 -27 -13 -7 -3
-19 -7 -25 -10 -7 -3 -20 -9 -28 -14 -8 -5 -24 -12 -34 -16 -10 -3 -16 -8 -13
-12 7 -6 142 55 180 82 25 17 12 19 -18 3z"/>
<path d="M13670 6886 c0 -24 18 -28 30 -6 9 17 8 20 -10 20 -11 0 -20 -6 -20
-14z"/>
<path d="M13678 6824 c-3 -5 -9 -60 -13 -121 -8 -124 -4 -132 50 -119 22 6 24
9 14 28 -6 12 -14 59 -17 105 -4 76 -21 129 -34 107z"/>
<path d="M18205 6559 c-96 -82 -284 -206 -407 -269 -130 -67 -130 -67 -115
-91 12 -19 12 -19 17 3 4 16 14 24 32 26 16 2 28 11 31 23 3 11 14 19 26 19
11 0 40 14 64 30 25 17 52 30 60 30 8 0 20 7 27 15 7 8 21 15 32 15 10 0 21 7
24 15 4 8 16 15 29 15 14 0 25 7 28 20 3 11 17 24 31 30 14 5 26 14 26 19 0 5
14 14 30 20 17 5 30 15 30 21 0 6 13 16 30 21 16 6 32 19 35 29 3 10 14 20 24
23 16 4 38 48 23 46 -4 0 -38 -27 -77 -60z"/>
<path d="M13681 6492 c1 -26 3 -39 6 -29 2 9 8 17 13 17 13 0 6 49 -7 55 -10
3 -13 -9 -12 -43z"/>
<path d="M13680 6410 c-2 -33 -3 -33 -10 -10 -8 24 -11 -258 -15 -1248 l-2
-483 26 3 26 3 -3 307 c-3 267 -2 314 13 357 9 28 24 55 33 60 23 13 21 108
-3 144 -10 16 -15 38 -12 53 3 15 0 28 -8 30 -12 5 -16 74 -4 74 12 0 13 143
1 198 -9 39 -9 41 17 44 l26 3 0 96 c0 78 -3 101 -17 116 -20 22 -24 73 -7 90
9 9 6 13 -12 18 -17 4 -24 13 -24 30 0 14 4 25 9 25 5 0 3 7 -5 16 -10 13 -10
17 0 24 10 6 10 9 1 15 -6 4 -9 13 -6 21 3 8 1 14 -4 14 -5 0 -11 8 -13 18 -3
9 -6 1 -7 -18z"/>
<path d="M15424 6026 c-18 -14 -19 -36 -22 -840 -2 -721 -1 -826 12 -826 8 0
18 6 23 13 4 6 8 356 9 777 0 421 4 775 8 788 4 12 12 22 17 22 5 0 24 10 40
23 l31 22 504 0 c479 0 503 1 481 17 -20 16 -65 18 -553 18 -442 0 -533 -2
-550 -14z"/>
<path d="M16672 5970 c7 -11 17 -20 22 -20 5 0 1 9 -9 20 -10 11 -20 20 -22
20 -2 0 2 -9 9 -20z"/>
<path d="M16706 5941 c-3 -5 1 -14 9 -21 12 -10 15 -10 15 3 0 19 -16 31 -24
18z"/>
<path d="M16770 5850 c0 -5 5 -10 11 -10 5 0 7 5 4 10 -3 6 -8 10 -11 10 -2 0
-4 -4 -4 -10z"/>
<path d="M16895 5686 c10 -14 19 -26 22 -26 7 0 -17 39 -28 46 -6 3 -3 -5 6
-20z"/>
<path d="M16941 5635 c0 -5 6 -19 14 -29 8 -11 15 -15 15 -10 0 6 -7 19 -15
30 -8 10 -14 15 -14 9z"/>
<path d="M17170 5316 c0 -8 7 -16 15 -20 13 -4 14 -2 5 14 -13 23 -20 26 -20
6z"/>
<path d="M17227 5241 c5 -19 83 -111 83 -98 0 6 -81 117 -86 117 -1 0 0 -9 3
-19z"/>
<path d="M18475 5190 c-5 -8 35 -74 41 -67 1 1 -1 16 -3 34 -5 31 -27 51 -38
33z"/>
<path d="M18540 5090 c15 -28 30 -34 30 -12 0 11 -9 22 -20 25 -17 4 -18 2
-10 -13z"/>
<path d="M18700 4876 c0 -2 8 -10 18 -17 15 -13 16 -12 3 4 -13 16 -21 21 -21
13z"/>
<path d="M17630 4711 c0 -6 4 -13 10 -16 6 -3 7 1 4 9 -7 18 -14 21 -14 7z"/>
<path d="M13659 4575 c-1 -49 -3 -116 -5 -147 -1 -32 0 -58 2 -58 2 0 13 8 24
17 17 15 20 30 20 111 0 55 -4 91 -9 87 -6 -3 -14 14 -19 37 -9 40 -10 36 -13
-47z"/>
<path d="M17690 4631 c0 -6 4 -13 10 -16 6 -3 7 1 4 9 -7 18 -14 21 -14 7z"/>
<path d="M17740 4556 c0 -2 7 -9 15 -16 13 -11 14 -10 9 4 -5 14 -24 23 -24
12z"/>
<path d="M17800 4472 c0 -12 7 -27 15 -34 38 -32 45 -41 45 -58 0 -10 9 -20
20 -23 11 -3 20 -3 20 -1 0 4 -86 123 -96 133 -2 2 -4 -5 -4 -17z"/>
<path d="M19140 4440 c0 -5 5 -10 11 -10 5 0 7 5 4 10 -3 6 -8 10 -11 10 -2 0
-4 -4 -4 -10z"/>
<path d="M19180 4386 c0 -2 7 -9 15 -16 12 -10 15 -10 15 4 0 9 -7 16 -15 16
-8 0 -15 -2 -15 -4z"/>
<path d="M13650 4202 c0 -87 3 -161 6 -164 3 -3 14 -4 25 -1 19 5 20 13 17
164 -3 157 -3 159 -25 159 -23 0 -23 -1 -23 -158z"/>
<path d="M19251 4293 c7 -10 15 -20 16 -22 2 -2 3 5 3 17 0 14 -6 22 -16 22
-14 0 -15 -3 -3 -17z"/>
<path d="M15401 4101 c-1 -127 1 -142 15 -137 9 3 20 6 25 6 14 0 -2 193 -17
205 -7 6 -15 24 -17 40 -2 17 -5 -35 -6 -114z"/>
<path d="M19310 4215 c7 -9 15 -13 17 -11 7 7 -7 26 -19 26 -6 0 -6 -6 2 -15z"/>
<path d="M19347 4166 c25 -43 98 -127 101 -117 8 24 -8 58 -33 69 -14 7 -25
20 -25 31 0 12 -9 20 -25 23 -16 3 -22 1 -18 -6z"/>
<path d="M18096 4077 c3 -10 9 -15 12 -12 3 3 0 11 -7 18 -10 9 -11 8 -5 -6z"/>
<path d="M12646 3926 c7 -19 172 -28 519 -28 102 0 207 10 276 27 47 11 2 13
-373 14 -362 1 -427 -1 -422 -13z"/>
<path d="M14445 3930 c3 -5 23 -10 43 -10 21 0 62 -6 92 -14 30 -7 78 -17 105
-21 28 -3 77 -15 110 -26 35 -11 61 -15 63 -10 2 6 13 6 30 0 15 -6 35 -12 45
-14 20 -5 111 20 147 39 14 8 43 16 65 19 292 40 259 46 -248 47 -303 0 -456
-3 -452 -10z"/>
<path d="M18319 3928 c18 -19 1105 -18 1123 0 9 9 -106 12 -562 12 -459 0
-571 -2 -561 -12z"/>
</g>
</svg>
